<svg width="986" height="986" viewBox="0 0 986 986" fill="none" xmlns="http://www.w3.org/2000/svg">
<path d="M103.203 914.598C101.579 914.598 100.177 914.288 98.997 913.669C97.8366 913.031 96.8504 912.161 96.0382 911.059L97.8366 909.55C98.5522 910.498 99.345 911.223 100.215 911.726C101.086 912.209 102.11 912.451 103.29 912.451C104.74 912.451 105.843 912.103 106.597 911.407C107.371 910.711 107.757 909.782 107.757 908.622C107.757 907.984 107.632 907.442 107.38 906.998C107.129 906.553 106.723 906.185 106.162 905.895C105.62 905.586 104.905 905.334 104.015 905.141L102.362 904.764C101.144 904.474 100.109 904.097 99.258 903.633C98.4071 903.169 97.7593 902.569 97.3145 901.834C96.8697 901.099 96.6473 900.219 96.6473 899.194C96.6473 897.995 96.9277 896.99 97.4885 896.178C98.0494 895.346 98.8326 894.718 99.8382 894.292C100.863 893.867 102.033 893.654 103.348 893.654C104.876 893.654 106.181 893.934 107.264 894.495C108.366 895.056 109.295 895.878 110.049 896.961L108.221 898.295C107.68 897.522 107.003 896.913 106.191 896.468C105.398 896.023 104.412 895.801 103.232 895.801C101.936 895.801 100.911 896.081 100.157 896.642C99.4224 897.203 99.055 898.024 99.055 899.107C99.055 899.746 99.1903 900.277 99.4611 900.703C99.7512 901.128 100.177 901.486 100.737 901.776C101.298 902.047 102.004 902.279 102.855 902.472L104.508 902.849C105.823 903.14 106.897 903.536 107.728 904.039C108.56 904.542 109.169 905.16 109.556 905.895C109.962 906.63 110.165 907.5 110.165 908.506C110.165 909.744 109.885 910.817 109.324 911.726C108.763 912.635 107.96 913.341 106.916 913.843C105.891 914.346 104.653 914.598 103.203 914.598ZM117.854 914.25V894.002H121.102L124.932 901.167L126.904 904.909H127.049L129.051 901.167L132.88 894.002H136.013V914.25H133.634V900.587V897.193H133.489L131.777 900.587L126.933 909.405L122.089 900.587L120.377 897.193H120.232V900.587V914.25H117.854ZM160.104 914.25H157.552L155.521 908.274H147.341L145.31 914.25H142.845L149.922 894.002H153.026L160.104 914.25ZM154.912 906.127L152.359 898.788L151.489 896.265H151.344L150.474 898.788L147.921 906.127H154.912ZM177.991 914.25H166.939V894.002H169.376V912.103H177.991V914.25ZM196.004 914.25H184.952V894.002H187.389V912.103H196.004V914.25ZM224.354 914.25H213.302V894.002H215.738V912.103H224.354V914.25ZM238.48 914.25H230.358V912.219H233.2V896.033H230.358V894.002H238.48V896.033H235.637V912.219H238.48V914.25ZM259.469 896.149H253.029V914.25H250.592V896.149H244.153V894.002H259.469V896.149ZM280.23 896.149H273.79V914.25H271.353V896.149H264.914V894.002H280.23V896.149ZM298.106 914.25H287.054V894.002H289.491V912.103H298.106V914.25ZM317.425 914.25H305.067V894.002H317.425V896.149H307.504V902.936H316.845V905.083H307.504V912.103H317.425V914.25ZM348.154 914.25H335.796V894.002H348.154V896.149H338.233V902.936H347.574V905.083H338.233V912.103H348.154V914.25ZM367.241 914.25H356.189V894.002H358.626V912.103H367.241V914.25ZM386.56 914.25H374.202V894.002H386.56V896.149H376.639V902.936H385.979V905.083H376.639V912.103H386.56V914.25ZM394.595 914.25V894.002H397.844L401.673 901.167L403.645 904.909H403.791L405.792 901.167L409.621 894.002H412.754V914.25H410.375V900.587V897.193H410.23L408.519 900.587L403.674 909.405L398.83 900.587L397.119 897.193H396.974V900.587V914.25H394.595ZM433.974 914.25H421.617V894.002H433.974V896.149H424.053V902.936H433.394V905.083H424.053V912.103H433.974V914.25ZM454.309 914.25L446.912 901.892L444.475 897.396H444.388V901.892V914.25H442.009V894.002H444.823L452.22 906.359L454.657 910.856H454.744V906.359V894.002H457.122V914.25H454.309ZM479.256 896.149H472.816V914.25H470.38V896.149H463.94V894.002H479.256V896.149Z" fill="white"/>
</svg>
