<svg width="986" height="986" viewBox="0 0 986 986" fill="none" xmlns="http://www.w3.org/2000/svg">
<path d="M144.565 192.186C135.956 192.186 128.57 190.23 122.407 186.317C116.244 182.306 111.499 176.436 108.173 168.708C104.945 160.882 103.331 151.246 103.331 139.8C103.331 128.354 104.945 118.669 108.173 110.745C111.499 102.724 116.244 96.6584 122.407 92.5497C128.57 88.3431 135.956 86.2399 144.565 86.2399C153.076 86.2399 160.266 88.1964 166.135 92.1095C172.005 96.0225 176.554 101.55 179.782 108.691L169.804 114.707C167.75 109.425 164.619 105.218 160.413 102.088C156.206 98.8595 150.923 97.2454 144.565 97.2454C135.76 97.2454 128.864 100.474 123.874 106.93C118.983 113.289 116.537 121.702 116.537 132.169V147.43C116.537 157.898 118.983 166.164 123.874 172.23C128.864 178.197 135.76 181.181 144.565 181.181C151.119 181.181 156.597 179.518 161 176.192C165.402 172.768 168.63 168.268 170.684 162.691L180.516 168.855C177.288 175.996 172.592 181.67 166.429 185.876C160.364 190.083 153.076 192.186 144.565 192.186ZM227.046 192.186C220.296 192.186 214.329 190.572 209.144 187.344C204.057 184.018 200.046 179.42 197.111 173.55C194.274 167.583 192.856 160.588 192.856 152.566C192.856 144.545 194.274 137.599 197.111 131.729C200.046 125.762 204.057 121.164 209.144 117.936C214.329 114.61 220.296 112.947 227.046 112.947C233.796 112.947 239.715 114.61 244.802 117.936C249.987 121.164 253.998 125.762 256.835 131.729C259.769 137.599 261.237 144.545 261.237 152.566C261.237 160.588 259.769 167.583 256.835 173.55C253.998 179.42 249.987 184.018 244.802 187.344C239.715 190.572 233.796 192.186 227.046 192.186ZM227.046 181.768C233.405 181.768 238.59 179.811 242.601 175.898C246.612 171.985 248.617 166.018 248.617 157.996V147.137C248.617 139.115 246.612 133.148 242.601 129.235C238.59 125.322 233.405 123.365 227.046 123.365C220.785 123.365 215.601 125.322 211.492 129.235C207.481 133.148 205.476 139.115 205.476 147.137V157.996C205.476 166.018 207.481 171.985 211.492 175.898C215.601 179.811 220.785 181.768 227.046 181.768ZM309.158 192.186C302.408 192.186 296.44 190.572 291.255 187.344C286.168 184.018 282.158 179.42 279.223 173.55C276.386 167.583 274.967 160.588 274.967 152.566C274.967 144.545 276.386 137.599 279.223 131.729C282.158 125.762 286.168 121.164 291.255 117.936C296.44 114.61 302.408 112.947 309.158 112.947C315.908 112.947 321.826 114.61 326.913 117.936C332.098 121.164 336.109 125.762 338.946 131.729C341.881 137.599 343.348 144.545 343.348 152.566C343.348 160.588 341.881 167.583 338.946 173.55C336.109 179.42 332.098 184.018 326.913 187.344C321.826 190.572 315.908 192.186 309.158 192.186ZM309.158 181.768C315.516 181.768 320.701 179.811 324.712 175.898C328.723 171.985 330.729 166.018 330.729 157.996V147.137C330.729 139.115 328.723 133.148 324.712 129.235C320.701 125.322 315.516 123.365 309.158 123.365C302.897 123.365 297.712 125.322 293.603 129.235C289.592 133.148 287.587 139.115 287.587 147.137V157.996C287.587 166.018 289.592 171.985 293.603 175.898C297.712 179.811 302.897 181.768 309.158 181.768ZM385.546 190.425H375.128C371.117 190.425 368.035 189.3 365.883 187.05C363.731 184.702 362.655 181.768 362.655 178.246V81.8377H374.394V180.153H385.546V190.425ZM172.592 324.425V278.055H120.793V324.425H108.467V222.001H120.793V267.197H172.592V222.001H184.918V324.425H172.592ZM239.51 326.186C232.662 326.186 226.695 324.572 221.608 321.344C216.521 318.018 212.559 313.42 209.722 307.55C206.885 301.583 205.466 294.588 205.466 286.566C205.466 278.545 206.885 271.599 209.722 265.729C212.559 259.762 216.521 255.164 221.608 251.936C226.695 248.61 232.662 246.947 239.51 246.947C246.26 246.947 252.081 248.561 256.972 251.789C261.864 254.919 265.63 259.273 268.271 264.849C270.912 270.425 272.233 276.784 272.233 283.925V289.501H217.793V293.023C217.793 299.577 219.749 305.056 223.662 309.458C227.673 313.762 233.2 315.914 240.244 315.914C245.037 315.914 249.195 314.789 252.717 312.539C256.336 310.289 259.124 307.061 261.081 302.855L269.445 308.871C266.999 313.958 263.184 318.115 257.999 321.344C252.815 324.572 246.651 326.186 239.51 326.186ZM239.51 256.778C235.304 256.778 231.537 257.756 228.211 259.713C224.983 261.669 222.439 264.409 220.581 267.93C218.722 271.354 217.793 275.267 217.793 279.67V280.697H259.613V279.083C259.613 274.583 258.782 270.67 257.119 267.343C255.456 264.017 253.108 261.425 250.075 259.566C247.043 257.707 243.521 256.778 239.51 256.778ZM353.208 324.425H346.605C343.475 324.425 340.931 323.789 338.975 322.518C337.018 321.148 335.6 319.289 334.719 316.942C333.839 314.594 333.399 311.903 333.399 308.871V307.844L337.947 312.099H332.812C331.246 316.697 328.507 320.219 324.594 322.664C320.779 325.012 316.23 326.186 310.947 326.186C302.925 326.186 296.665 324.132 292.165 320.023C287.762 315.914 285.561 310.338 285.561 303.295C285.561 298.501 286.735 294.49 289.083 291.262C291.431 287.936 294.953 285.441 299.648 283.778C304.442 282.017 310.507 281.137 317.844 281.137H332.812V273.653C332.812 268.273 331.344 264.164 328.409 261.327C325.475 258.49 320.975 257.072 314.909 257.072C310.409 257.072 306.594 258.099 303.464 260.153C300.333 262.208 297.741 264.947 295.686 268.371L288.643 261.767C290.697 257.756 293.974 254.284 298.474 251.349C302.974 248.414 308.648 246.947 315.496 246.947C324.594 246.947 331.687 249.197 336.774 253.697C341.958 258.197 344.551 264.458 344.551 272.479V314.153H353.208V324.425ZM332.812 289.941H317.257C310.605 289.941 305.714 290.92 302.583 292.876C299.453 294.833 297.887 297.67 297.887 301.387V304.469C297.887 308.186 299.257 311.072 301.996 313.126C304.735 315.181 308.355 316.208 312.855 316.208C316.768 316.208 320.192 315.621 323.127 314.447C326.159 313.175 328.507 311.512 330.17 309.458C331.931 307.306 332.812 304.958 332.812 302.414V289.941ZM418.387 324.425V312.099H417.8C415.55 316.795 412.567 320.317 408.849 322.664C405.23 325.012 400.827 326.186 395.643 326.186C389.382 326.186 383.903 324.572 379.208 321.344C374.61 318.115 371.039 313.518 368.496 307.55C366.05 301.583 364.827 294.588 364.827 286.566C364.827 278.447 366.05 271.452 368.496 265.583C371.039 259.615 374.61 255.017 379.208 251.789C383.903 248.561 389.382 246.947 395.643 246.947C400.827 246.947 405.327 248.12 409.143 250.468C412.958 252.718 415.844 256.24 417.8 261.034H418.387V215.838H430.127V324.425H418.387ZM398.871 315.621C402.491 315.621 405.768 315.034 408.703 313.86C411.637 312.588 413.985 310.827 415.746 308.577C417.507 306.23 418.387 303.441 418.387 300.213V272.039C418.387 269.202 417.507 266.708 415.746 264.555C413.985 262.403 411.637 260.691 408.703 259.419C405.768 258.148 402.491 257.512 398.871 257.512C392.317 257.512 387.083 259.615 383.17 263.822C379.355 267.93 377.447 273.36 377.447 280.11V293.023C377.447 299.773 379.355 305.251 383.17 309.458C387.083 313.567 392.317 315.621 398.871 315.621ZM477.975 324.425H467.557C463.546 324.425 460.464 323.3 458.312 321.05C456.16 318.702 455.084 315.768 455.084 312.246V215.838H466.823V314.153H477.975V324.425ZM500.934 230.952C498.489 230.952 496.679 230.365 495.505 229.191C494.331 227.919 493.744 226.305 493.744 224.349V222.441C493.744 220.484 494.331 218.919 495.505 217.745C496.679 216.474 498.489 215.838 500.934 215.838C503.478 215.838 505.288 216.474 506.364 217.745C507.538 218.919 508.125 220.484 508.125 222.441V224.349C508.125 226.305 507.538 227.919 506.364 229.191C505.288 230.365 503.478 230.952 500.934 230.952ZM495.065 324.425V248.707H506.804V324.425H495.065ZM543.489 324.425H531.75V248.707H543.489V261.034H544.076C545.935 256.729 548.527 253.305 551.853 250.762C555.277 248.218 559.826 246.947 565.5 246.947C573.326 246.947 579.489 249.49 583.989 254.577C588.587 259.566 590.886 266.659 590.886 275.854V324.425H579.147V277.909C579.147 271.159 577.679 266.072 574.745 262.648C571.908 259.224 567.652 257.512 561.978 257.512C558.848 257.512 555.864 258.05 553.027 259.126C550.19 260.104 547.891 261.669 546.13 263.822C544.369 265.974 543.489 268.664 543.489 271.892V324.425ZM643.618 326.186C636.771 326.186 630.803 324.572 625.716 321.344C620.629 318.018 616.667 313.42 613.83 307.55C610.993 301.583 609.575 294.588 609.575 286.566C609.575 278.545 610.993 271.599 613.83 265.729C616.667 259.762 620.629 255.164 625.716 251.936C630.803 248.61 636.771 246.947 643.618 246.947C650.368 246.947 656.189 248.561 661.081 251.789C665.972 254.919 669.738 259.273 672.38 264.849C675.021 270.425 676.341 276.784 676.341 283.925V289.501H621.901V293.023C621.901 299.577 623.857 305.056 627.771 309.458C631.781 313.762 637.309 315.914 644.352 315.914C649.146 315.914 653.303 314.789 656.825 312.539C660.445 310.289 663.233 307.061 665.189 302.855L673.553 308.871C671.108 313.958 667.293 318.115 662.108 321.344C656.923 324.572 650.76 326.186 643.618 326.186ZM643.618 256.778C639.412 256.778 635.646 257.756 632.319 259.713C629.091 261.669 626.548 264.409 624.689 267.93C622.83 271.354 621.901 275.267 621.901 279.67V280.697H663.722V279.083C663.722 274.583 662.89 270.67 661.227 267.343C659.564 264.017 657.216 261.425 654.184 259.566C651.151 257.707 647.629 256.778 643.618 256.778Z" fill="white"/>
</svg>
